<svg xmlns="http://www.w3.org/2000/svg" width="128" height="128" viewBox="0 0 128 128">
  <defs>
    <linearGradient id="steel" x1="0" y1="0" x2="0" y2="1">
      <stop offset="0" stop-color="#D8DEE8"/><stop offset="1" stop-color="#8D99AE"/>
    </linearGradient>
  </defs>
  <!-- shield -->
  <path d="M 64 30 Q 94 34 100 40 Q 102 78 64 108 Q 26 78 28 40 Q 34 34 64 30 Z" fill="#0F5E63" stroke="#2E1B0E" stroke-width="4"/>
  <path d="M 64 38 Q 88 41 93 46 Q 94 74 64 99 Q 34 74 35 46 Q 40 41 64 38 Z" fill="none" stroke="#E8B93B" stroke-width="2.5"/>
  <polygon points="64.0,42.0 67.6,55.2 79.6,48.4 72.8,60.4 86.0,64.0 72.8,67.6 79.6,79.6 67.6,72.8 64.0,86.0 60.4,72.8 48.4,79.6 55.2,67.6 42.0,64.0 55.2,60.4 48.4,48.4 60.4,55.2" fill="#E8B93B"/>
  <!-- crossed scimitars behind shield -->
  <g stroke="#2E1B0E" stroke-width="2">
    <path d="M 16 118 Q 34 86 74 30 Q 82 20 92 16 Q 84 28 78 40 Q 46 92 26 120 Z" fill="url(#steel)" transform="rotate(0)"/>
    <path d="M 112 118 Q 94 86 54 30 Q 46 20 36 16 Q 44 28 50 40 Q 82 92 102 120 Z" fill="url(#steel)"/>
  </g>
  <rect x="18" y="112" width="16" height="7" rx="3" fill="#B8860B" transform="rotate(38 26 115)"/>
  <rect x="94" y="112" width="16" height="7" rx="3" fill="#B8860B" transform="rotate(-38 102 115)"/>
</svg>